<?xml version="1.0" encoding="utf-8"?>
<!-- Generator: Adobe Illustrator 24.0.3, SVG Export Plug-In . SVG Version: 6.00 Build 0)  -->
<svg version="1.1" id="Layer_1" xmlns="http://www.w3.org/2000/svg" xmlns:xlink="http://www.w3.org/1999/xlink" x="0px" y="0px"
	 viewBox="0 0 260.17 417.53" style="enable-background:new 0 0 260.17 417.53;" xml:space="preserve">
<style type="text/css">
	.st0{fill:#FFFFFF;stroke:#000000;stroke-miterlimit:10;}
	.st1{font-family:'Monaco';}
	.st2{font-size:12px;}
	.st3{font-size:11.31px;}
	.st4{font-family:'KozGoPr6N-Regular-83pv-RKSJ-H';}
	.st5{fill:none;stroke:#000000;stroke-miterlimit:10;}
</style>
<circle class="st0" cx="44.24" cy="239.79" r="15.86"/>
<text transform="matrix(1 0 0 1 40.6405 242.5398)" class="st1 st2">1</text>
<circle class="st0" cx="129.07" cy="103.96" r="15.86"/>
<circle class="st0" cx="129.07" cy="239.79" r="15.86"/>
<text transform="matrix(1.061 0 0 1 125.468 107.0025)" class="st1 st3">2</text>
<text transform="matrix(1.061 0 0 1 123.0686 242.5398)" class="st4 st3">４</text>
<g>
	<g>
		<line class="st5" x1="55.97" y1="229.11" x2="116.03" y2="120.41"/>
		<g>
			<path d="M118.95,115.13c-0.45,3-0.58,6.95,0.03,9.78l-3.33-3.81l-4.99-0.79C113.38,119.32,116.65,117.11,118.95,115.13z"/>
		</g>
	</g>
</g>
<g>
	<g>
		<line class="st5" x1="60.1" y1="239.79" x2="107.17" y2="239.79"/>
		<g>
			<path d="M113.21,239.79c-2.84,1.05-6.36,2.85-8.55,4.76l1.72-4.76l-1.72-4.75C106.84,236.94,110.37,238.74,113.21,239.79z"/>
		</g>
	</g>
</g>
<g>
	<g>
		<line class="st5" x1="55.97" y1="250.06" x2="116.12" y2="363.71"/>
		<g>
			<path d="M118.95,369.05c-2.26-2.02-5.5-4.29-8.2-5.33l5.01-0.7l3.4-3.74C118.49,362.09,118.55,366.04,118.95,369.05z"/>
		</g>
	</g>
</g>
<text transform="matrix(1 0 0 1 62.7496 164.8327)" class="st1 st2">0,1</text>
<text transform="matrix(1 0 0 1 122.9634 42.997)" class="st1 st2">0,1</text>
<text transform="matrix(1 0 0 1 75.8529 234.9589)" class="st1 st2">2-9</text>
<circle class="st0" cx="213.9" cy="103.96" r="15.86"/>
<text transform="matrix(1.061 0 0 1 210.2956 106.7122)" class="st1 st3">3</text>
<g>
	<g>
		<line class="st5" x1="144.93" y1="103.96" x2="192" y2="103.96"/>
		<g>
			<path d="M198.03,103.96c-2.84,1.05-6.36,2.85-8.55,4.76l1.72-4.76l-1.72-4.75C191.67,101.11,195.19,102.91,198.03,103.96z"/>
		</g>
	</g>
</g>
<text transform="matrix(1 0 0 1 167.8817 99.1313)" class="st1 st2">b</text>
<text transform="matrix(1 0 0 1 203.0945 83.6749)" class="st1 st2">BIN</text>
<text transform="matrix(1 0 0 1 69.9508 294.9589)" class="st1 st2">,</text>
<circle class="st0" cx="129.07" cy="381.91" r="15.86"/>
<text transform="matrix(1 0 0 1 125.4681 384.6552)" class="st1 st2">6</text>
<g>
	<g>
		<path class="st5" d="M118.92,89.85c0,0-10.15-1.04-10.15-21.07c0-10.92,9.63-20.81,21.98-20.81c17.65,0,21.98,11.71,21.98,21.98
			c0,10.13-4.54,15.17-8.46,17.64"/>
		<g>
			<path d="M138.7,89.85c2.2-2.08,4.74-5.12,6-7.73l0.28,5.05l3.45,3.7C145.67,89.98,141.72,89.7,138.7,89.85z"/>
		</g>
	</g>
</g>
<g>
	<g>
		<line class="st5" x1="129.07" y1="119.83" x2="129.07" y2="217.89"/>
		<g>
			<path d="M129.07,223.93c-1.05-2.84-2.85-6.36-4.76-8.55l4.76,1.72l4.75-1.72C131.92,217.57,130.12,221.09,129.07,223.93z"/>
		</g>
	</g>
</g>
<text transform="matrix(1 0 0 1 134.1289 197.378)" class="st1 st2">2-9</text>
<path class="st0" d="M213.9,257.87c-8.76,0-15.86-7.1-15.86-15.86s7.1-15.86,15.86-15.86c8.76,0,15.86,7.1,15.86,15.86
	S222.66,257.87,213.9,257.87"/>
<text transform="matrix(1.061 0 0 1 210.2956 244.7535)" class="st1 st3">5</text>
<g>
	<g>
		<line class="st5" x1="144.93" y1="242.01" x2="192" y2="242.01"/>
		<g>
			<path d="M198.03,242.01c-2.84,1.05-6.36,2.85-8.55,4.76l1.72-4.76l-1.72-4.75C191.67,239.15,195.19,240.95,198.03,242.01z"/>
		</g>
	</g>
</g>
<text transform="matrix(1 0 0 1 167.8817 237.1725)" class="st1 st2">d</text>
<text transform="matrix(1 0 0 1 203.0945 221.7162)" class="st1 st2">DEC</text>
<text transform="matrix(1 0 0 1 125.9467 359.7573)" class="st1 st2">COM</text>
<text transform="matrix(1 0 0 1 121.2703 313.039)" class="st1 st2">0-9</text>
<g>
	<g>
		<path class="st5" d="M140.91,255.65c0,0,10.15,1.04,10.15,21.07c0,10.92-9.63,20.81-21.98,20.81c-17.65,0-21.98-11.71-21.98-21.98
			c0-10.13,4.54-15.17,8.46-17.64"/>
		<g>
			<path d="M121.13,255.65c-2.2,2.08-4.74,5.12-6,7.73l-0.28-5.05l-3.45-3.7C114.16,255.53,118.11,255.8,121.13,255.65z"/>
		</g>
	</g>
</g>
<g>
	<g>
		<line class="st5" x1="138.93" y1="116.38" x2="199.71" y2="225.56"/>
		<g>
			<path d="M202.64,230.83c-2.3-1.97-5.59-4.17-8.31-5.15l4.99-0.81l3.32-3.82C202.04,223.88,202.18,227.84,202.64,230.83z"/>
		</g>
	</g>
</g>
<text transform="matrix(1 0 0 1 163.1279 151.5074)" class="st1 st2">d</text>
<text transform="matrix(1 0 0 1 12.2572 22.5762)" class="st4 st2">問題2(1)</text>
</svg>
